<?xml version="1.0" standalone="no"?>
<!DOCTYPE svg PUBLIC "-//W3C//DTD SVG 1.1//EN" "http://www.w3.org/Graphics/SVG/1.1/DTD/svg11.dtd" >
<svg xmlns="http://www.w3.org/2000/svg" xmlns:xlink="http://www.w3.org/1999/xlink" version="1.1">
<metadata></metadata>
<defs>
<font id="avantgardecregular" horiz-adv-x="1134" >
<font-face units-per-em="2048" ascent="1610" descent="-438" />
<missing-glyph horiz-adv-x="477" />
<glyph horiz-adv-x="0" />
<glyph horiz-adv-x="682" />
<glyph unicode=" "  horiz-adv-x="477" />
<glyph unicode="&#x09;" horiz-adv-x="477" />
<glyph unicode="&#xa0;" horiz-adv-x="477" />
<glyph unicode="!" horiz-adv-x="604" d="M227 0v258h152v-258h-152zM227 395v1121h152v-1121h-152z" />
<glyph unicode="&#x22;" horiz-adv-x="632" d="M150 1053v463h106v-463h-106zM377 1053v463h106v-463h-106z" />
<glyph unicode="#" d="M4 512l35 119h307l74 254h-307l34 119h308l149 512h86l-149 -512h196l150 512h86l-150 -512h307l-34 -119h-308l-73 -254h307l-35 -119h-307l-152 -512h-86l152 512h-197l-151 -512h-86l151 512h-307zM432 631h197l73 254h-196z" />
<glyph unicode="$" d="M154 440v25h143q-2 -125 74.5 -204t197.5 -79q120 0 193.5 78.5t73.5 190.5q0 43 -10.5 80t-25.5 62.5t-41 48.5t-46.5 36.5t-53.5 27.5t-51 20t-49 15q-56 17 -97 32.5t-93.5 47t-86 69.5t-57.5 99.5t-24 136.5q0 140 84.5 239.5t216.5 119.5v170h133v-170 q144 -15 235.5 -120.5t96.5 -252.5h-144q0 112 -70 181t-178 69q-104 0 -166.5 -67.5t-62.5 -178.5q0 -48 15.5 -86t36.5 -61.5t58 -43t64.5 -29.5t71.5 -22q56 -16 100 -32.5t101.5 -51t95.5 -77t65 -110t27 -150.5q0 -81 -29 -151.5t-77.5 -120t-110 -81.5t-129.5 -41 v-170h-133v170q-147 21 -247.5 126t-100.5 255z" />
<glyph unicode="%" horiz-adv-x="1587" d="M37 1184q0 150 105 254t253 104q151 0 255 -103.5t104 -254.5q0 -148 -104.5 -253.5t-254.5 -105.5q-149 0 -253.5 105t-104.5 254zM180 1184q0 -89 63 -152t152 -63q90 0 152.5 63.5t62.5 151.5q0 89 -63 152t-152 63q-88 0 -151.5 -62.5t-63.5 -152.5zM379 0l680 1516 h147l-680 -1516h-147zM834 332q0 150 105 254t253 104q151 0 254.5 -103.5t103.5 -254.5q0 -149 -104 -254t-254 -105q-149 0 -253.5 105t-104.5 254zM977 332q0 -89 63 -152t152 -63q90 0 152.5 63.5t62.5 151.5q0 89 -63 152t-152 63q-88 0 -151.5 -62.5t-63.5 -152.5z " />
<glyph unicode="&#x26;" horiz-adv-x="1550" d="M117 442q0 75 23.5 141.5t59 113.5t84 86t92.5 62.5t89 39.5q-168 141 -168 323q0 62 22.5 120t64.5 106.5t111.5 78t155.5 29.5q91 0 164.5 -32t118 -84.5t67.5 -115.5t23 -130q0 -211 -297 -340l287 -283l219 426h170l-281 -534l383 -373l-108 -103l-346 338l-33 -55 q-40 -68 -78.5 -116t-89.5 -88t-117 -59.5t-147 -19.5q-213 0 -341 132.5t-128 336.5zM268 430q0 -132 86 -225.5t219 -93.5q112 0 189 61.5t139 177.5l37 70l-365 356l-75 -35q-71 -32 -120 -76t-71 -88.5t-30.5 -79t-8.5 -67.5zM449 1214q0 -125 151 -249l23 -19 q249 95 249 254q0 86 -57.5 145.5t-155.5 59.5q-86 0 -148 -50.5t-62 -140.5z" />
<glyph unicode="'" horiz-adv-x="405" d="M152 1053v463h102v-463h-102z" />
<glyph unicode="(" horiz-adv-x="755" d="M115 629q0 306 155.5 545.5t413.5 341.5v-134q-112 -66 -196 -159t-130.5 -195t-69 -201.5t-22.5 -197.5q0 -77 13.5 -156t44.5 -163.5t78 -161t119.5 -148.5t162.5 -125v-133q-258 102 -413.5 341.5t-155.5 545.5z" />
<glyph unicode=")" horiz-adv-x="755" d="M72 -125q112 66 195.5 159t130.5 195t69 202t22 198t-22 197.5t-69 201.5t-130.5 195t-195.5 159v134q258 -102 413.5 -341.5t155.5 -545.5t-155.5 -545.5t-413.5 -341.5v133z" />
<glyph unicode="*" horiz-adv-x="870" d="M133 1192v104h211l-111 185l99 57l106 -184l111 184l94 -57l-108 -185h204v-104h-204l108 -180l-94 -58l-111 185l-106 -185l-99 58l111 180h-211z" />
<glyph unicode="+" horiz-adv-x="1241" d="M104 543v155h439v437h155v-437h439v-155h-439v-443h-155v443h-439z" />
<glyph unicode="," horiz-adv-x="567" d="M84 -137l180 395h152l-180 -395h-152z" />
<glyph unicode="-" horiz-adv-x="679" d="M61 547v137h557v-137h-557z" />
<glyph unicode="." horiz-adv-x="567" d="M207 0v258h151v-258h-151z" />
<glyph unicode="/" horiz-adv-x="894" d="M82 -258l592 1774h139l-596 -1774h-135z" />
<glyph unicode="0" d="M61 543v430q0 41 2.5 79.5t14.5 98.5t31.5 110t58 104t90 91t131.5 61.5t178 24.5t178 -24.5t131.5 -61.5t90 -91t58 -104t31.5 -110t14.5 -98.5t2.5 -79.5v-430q0 -41 -2.5 -79.5t-14.5 -98.5t-31.5 -110t-58 -104t-90 -91.5t-131.5 -62t-178 -24.5t-178 24.5t-131.5 62 t-90 91.5t-58 104t-31.5 110t-14.5 98.5t-2.5 79.5zM213 578q0 -467 354 -467q355 0 355 467v360q0 467 -355 467q-354 0 -354 -467v-360z" />
<glyph unicode="1" d="M229 942l404 574h194v-1516h-151v1335l-334 -479z" />
<glyph unicode="2" d="M70 0v135l583 563q6 6 36.5 35.5t39 38t34 35.5t34.5 40t28 38.5t26.5 44.5t18 44t14 50.5t3.5 52.5q0 86 -37 159.5t-114.5 121t-180.5 47.5q-109 0 -186 -56t-109.5 -140t-26.5 -181h-151q-4 75 12 147.5t54 139t94 117t140 80.5t185 30q133 0 239 -54t169 -160.5 t63 -248.5q0 -64 -14.5 -121t-37 -100t-57 -86.5t-67 -76.5t-74.5 -73q-19 -17 -28 -26l-481 -459h751v-137h-960z" />
<glyph unicode="3" d="M72 473h151q1 -159 93.5 -260.5t232.5 -101.5q141 0 238.5 101t97.5 247q0 37 -6.5 74t-30.5 87t-64 86.5t-115 62.5t-175 26h-39v137h59q64 0 114 16t79 40t47.5 57t25 62t6.5 60q0 101 -62.5 169.5t-166.5 68.5q-112 0 -175.5 -79.5t-55.5 -184.5h-152q-3 74 20 144.5 t69.5 128.5t123.5 93t174 35q172 0 274.5 -111t102.5 -276q0 -82 -43.5 -161.5t-126.5 -127.5q124 -41 196 -152t72 -253q0 -66 -18 -132.5t-57 -131t-95 -114t-138 -80t-179 -30.5q-99 0 -180 30.5t-134.5 80.5t-90.5 116t-53.5 134t-18.5 139z" />
<glyph unicode="4" d="M25 276v138l733 1102h184v-1102h137v-138h-137v-276h-151v276h-766zM203 414h588v891z" />
<glyph unicode="5" d="M53 475h152q4 -160 109.5 -262t250.5 -102q151 0 258 105t107 284q0 169 -99 281t-264 112q-84 0 -168.5 -42t-142.5 -126l-121 43l137 748h684v-138h-561l-76 -420q110 72 256 72q149 0 264.5 -67.5t178.5 -187.5t63 -271q0 -147 -63.5 -268t-180.5 -192t-264 -71 q-215 0 -361.5 142.5t-158.5 359.5z" />
<glyph unicode="6" d="M51 500q0 54 9.5 105t20 85.5t37 83t41 71.5t50.5 76q9 14 14 21l381 574h176l-358 -535q78 47 180 47q89 0 173.5 -34t154 -97t111.5 -166t42 -229q0 -228 -144.5 -378.5t-375.5 -150.5q-154 0 -271.5 70.5t-179 189.5t-61.5 267zM207 510q0 -92 30 -169t80.5 -126.5 t115.5 -76.5t136 -27q161 0 262 112t101 275q0 171 -101.5 282t-265.5 111q-150 0 -254 -106t-104 -275z" />
<glyph unicode="7" d="M131 1378v138h873v-138l-619 -1378h-164l623 1378h-713z" />
<glyph unicode="8" d="M86 444q0 116 64.5 229.5t191.5 172.5q-86 49 -131 129.5t-45 177.5q0 70 25 137t73 124.5t128.5 92.5t180.5 35q178 0 287 -111.5t109 -287.5q0 -25 -5.5 -55t-22 -76.5t-56 -91t-97.5 -74.5q127 -54 194 -164t67 -236q0 -99 -39.5 -187.5t-106 -150.5t-156 -98.5 t-186.5 -36.5q-102 0 -191.5 38t-151 102t-97 150.5t-35.5 180.5zM238 436q0 -136 89 -230.5t234 -94.5q148 0 242 96.5t94 238.5q0 138 -97 230t-237 92q-138 0 -231.5 -96t-93.5 -236zM317 1161q0 -109 70 -182.5t184 -73.5q108 0 177 73t69 177q0 100 -64.5 175 t-179.5 75q-108 0 -182 -66.5t-74 -177.5z" />
<glyph unicode="9" d="M51 1014q0 150 64 270t183.5 189t272.5 69q230 0 371 -150.5t141 -377.5q0 -110 -39 -206.5t-133 -236.5l-381 -571h-176l359 532q-78 -47 -181 -47q-89 0 -173.5 34.5t-154 98t-111.5 167t-42 229.5zM203 1018q0 -170 101.5 -282.5t264.5 -112.5q150 0 254.5 106.5 t104.5 274.5q0 78 -24.5 150t-69.5 128t-114.5 89.5t-154.5 33.5q-161 0 -261.5 -111.5t-100.5 -275.5z" />
<glyph unicode=":" horiz-adv-x="567" d="M207 0v258h151v-258h-151zM207 786v258h151v-258h-151z" />
<glyph unicode=";" horiz-adv-x="567" d="M84 -137l180 395h152l-180 -395h-152zM264 786v258h152v-258h-152z" />
<glyph unicode="&#x3c;" horiz-adv-x="1241" d="M100 551v131l1043 475v-149l-848 -392l848 -391v-149z" />
<glyph unicode="=" horiz-adv-x="1241" d="M104 340v154h1033v-154h-1033zM104 739v154h1033v-154h-1033z" />
<glyph unicode="&#x3e;" horiz-adv-x="1241" d="M98 76v149l848 391l-848 392v149l1043 -475v-131z" />
<glyph unicode="?" horiz-adv-x="1210" d="M115 1044q-9 145 55.5 260.5t178 176.5t251.5 61q96 0 174.5 -28.5t130 -75t87 -107.5t50.5 -124t15 -126q0 -57 -12.5 -103t-42.5 -90t-57 -74t-79 -81q-38 -37 -53.5 -53t-44.5 -48t-41 -53t-27 -52t-20.5 -63t-5.5 -69h-152q-1 70 15.5 130.5t50.5 112.5t64 86t77 81 q8 7 22 21q87 83 112 122q42 63 42 150q0 138 -91 222.5t-228 84.5q-152 0 -243.5 -107t-82.5 -254h-145zM522 0v258h152v-258h-152z" />
<glyph unicode="@" horiz-adv-x="1775" d="M123 764q0 150 41 276.5t114 218t172.5 156t218 96t249.5 31.5q172 0 311.5 -51.5t231.5 -142.5t141 -214.5t49 -267.5q0 -132 -43 -243t-109 -178t-139 -103.5t-139 -36.5q-62 0 -109 36.5t-51 100.5q-47 -68 -119.5 -102.5t-144.5 -34.5q-69 0 -132 23.5t-115 68.5 t-83 119.5t-31 169.5q0 85 17.5 163.5t55 147t90.5 119t128 80t164 29.5q194 0 262 -138l21 97h131l-129 -654q-9 -45 -9 -69q0 -62 74 -62q79 0 149.5 64t113 172.5t42.5 230.5q0 125 -44 232t-124.5 184.5t-200.5 121.5t-266 44q-130 0 -241 -35.5t-192 -98t-138 -148.5 t-85 -188t-28 -214q0 -195 85.5 -353.5t243.5 -250.5t359 -92q259 0 498 145l49 -80q-254 -160 -547 -160q-233 0 -413 98t-279.5 278t-99.5 415zM580 686q0 -72 19.5 -127t52.5 -86t72 -46t83 -15q55 0 106.5 27t94.5 79t69.5 140t26.5 198q0 131 -56.5 196.5t-146.5 65.5 q-146 0 -233.5 -123t-87.5 -309z" />
<glyph unicode="A" horiz-adv-x="1515" d="M23 0l653 1516h168l649 -1516h-164l-219 508h-704l-220 -508h-163zM465 645h586l-291 694z" />
<glyph unicode="B" horiz-adv-x="1175" d="M152 0v1516h378q502 0 502 -400q0 -192 -182 -303q132 -39 198 -147t66 -238q0 -30 -4 -61.5t-18 -75t-37 -82t-65 -78t-97.5 -67.5t-139.5 -46t-186 -18h-415zM303 137h264q394 0 394 289q0 303 -394 303h-264v-592zM303 866h227q351 0 351 256q0 52 -14 93t-35.5 67.5 t-54.5 45.5t-61.5 28.5t-68 14.5t-62.5 6t-55 1h-227v-512z" />
<glyph unicode="C" horiz-adv-x="1665" d="M86 762q0 166 61.5 311.5t167 248t250.5 161.5t307 59q236 0 420 -109t279 -305h-180q-18 28 -38 54t-67.5 70t-100.5 74.5t-136 54.5t-175 24q-139 0 -259.5 -52t-202 -139.5t-128 -205t-46.5 -246.5q0 -183 86.5 -333t234.5 -234t326 -84q147 0 285.5 71.5t226.5 212.5 h180q-106 -199 -288 -310.5t-404 -111.5q-165 0 -312 58.5t-254.5 161.5t-170 251t-62.5 318z" />
<glyph unicode="D" horiz-adv-x="1523" d="M152 0v1516h415q148 0 272 -26t212 -70t157 -106t111.5 -128.5t70 -142.5t38 -144.5t10.5 -138.5q0 -114 -29.5 -221t-96.5 -206t-164.5 -172t-244 -117t-325.5 -44h-426zM303 137h275q146 0 266 36t200.5 96.5t136 141.5t80.5 168.5t25 180.5q0 81 -18.5 159.5 t-68.5 163.5t-127.5 148.5t-208 105t-296.5 41.5h-264v-1241z" />
<glyph unicode="E" horiz-adv-x="1097" d="M152 0v1516h831v-138h-680v-547h658v-137h-658v-557h680v-137h-831z" />
<glyph unicode="F" horiz-adv-x="993" d="M152 0v1516h768v-138h-617v-549h594v-137h-594v-692h-151z" />
<glyph unicode="G" horiz-adv-x="1785" d="M86 764q0 157 58 298t162.5 247.5t260 169.5t338.5 63q240 0 426 -110t279 -318h-180q-42 77 -103 133.5t-117.5 86t-122 46.5t-105 21t-77.5 4q-137 0 -251.5 -41.5t-190 -108t-127.5 -152.5t-75 -172t-23 -169q0 -117 46.5 -231.5t130 -208.5t213.5 -152.5t283 -58.5 q96 0 190 29.5t176 84.5t146 142t95 194h-846v137h1028q-15 -159 -81 -294t-170 -230t-244.5 -148t-299.5 -53q-152 0 -285 43.5t-229.5 119.5t-166 176.5t-104 215.5t-34.5 236z" />
<glyph unicode="H" horiz-adv-x="1398" d="M152 0v1516h151v-668h793v668h151v-1516h-151v711h-793v-711h-151z" />
<glyph unicode="I" horiz-adv-x="462" d="M156 0v1516h151v-1516h-151z" />
<glyph unicode="J" horiz-adv-x="987" d="M27 358h151q4 -47 20.5 -89t47.5 -78.5t82 -58t116 -21.5q38 0 70 8t55.5 20t41.5 32.5t30 39.5t20.5 47t13 49t6.5 52t2.5 49.5t0.5 46.5v1061h152v-1061q0 -482 -392 -482q-103 0 -183.5 32.5t-129.5 88t-75 122.5t-29 142z" />
<glyph unicode="K" horiz-adv-x="1210" d="M152 0v1516h151v-889l713 889h178l-598 -740l598 -776h-188l-506 655l-197 -241v-414h-151z" />
<glyph unicode="L" horiz-adv-x="946" d="M152 0v1516h151v-1379h627v-137h-778z" />
<glyph unicode="M" horiz-adv-x="1882" d="M152 0v1516h233l557 -1291l557 1291h234v-1516h-152v1346l-575 -1346h-127l-576 1346v-1346h-151z" />
<glyph unicode="N" horiz-adv-x="1515" d="M152 0v1516h204l856 -1258v1258h152v-1516h-152l-909 1331v-1331h-151z" />
<glyph unicode="O" horiz-adv-x="1779" d="M86 754q0 168 62.5 315t169.5 250.5t255.5 163t315.5 59.5q224 0 407.5 -99t289.5 -277t106 -400q0 -168 -62.5 -315.5t-169.5 -252t-255.5 -165t-315.5 -60.5q-221 0 -404.5 99.5t-291 279t-107.5 402.5zM238 754q0 -187 87 -334.5t235.5 -228t330.5 -80.5t330.5 84 t233.5 234.5t85 336.5q0 185 -86 331.5t-234 227t-329 80.5q-183 0 -332.5 -83.5t-235 -233t-85.5 -334.5z" />
<glyph unicode="P" horiz-adv-x="1212" d="M152 0v1516h479q127 0 224 -31.5t152 -78.5t89.5 -111t45.5 -119.5t11 -114.5q0 -88 -28.5 -166t-88 -144t-163.5 -104.5t-242 -38.5h-328v-608h-151zM303 745h330q97 0 170.5 26.5t115.5 72.5t62 100.5t20 116.5q0 64 -20 118.5t-62 100t-115.5 72t-170.5 26.5h-330 v-633z" />
<glyph unicode="Q" horiz-adv-x="1783" d="M86 754q0 168 62.5 315t170.5 250.5t256.5 163t315.5 59.5q223 0 407 -99t291 -277.5t107 -399.5q0 -333 -234 -567q88 -88 201 -88h12v-138q-12 -1 -23 -1q-90 0 -163 36q-82 40 -139 101q-200 -136 -459 -136q-221 0 -405 99.5t-292 279t-108 402.5zM238 754 q0 -99 22 -183q163 56 332 56q219 0 416 -88.5t350 -241.5q186 195 186 469q0 185 -86.5 331.5t-235 227t-329.5 80.5q-184 0 -333.5 -83t-235.5 -232.5t-86 -335.5zM311 444q84 -156 236 -244.5t346 -88.5q206 0 350 94q-79 77 -169 134t-160.5 84.5t-146 43.5t-113 19 t-74.5 3q-144 0 -269 -45z" />
<glyph unicode="R" horiz-adv-x="1243" d="M152 0v1516h423q117 0 212 -21.5t156.5 -54.5t107.5 -80.5t69.5 -91.5t37.5 -96t17 -85t3 -67q0 -186 -123.5 -314t-323.5 -141l426 -565h-188l-514 686h120q29 0 53 1t73.5 8t88 19.5t85 38.5t78 61.5t52.5 92t21 127.5q0 52 -12 98.5t-44 92.5t-81.5 79t-130 53.5 t-183.5 20.5h-272v-1378h-151z" />
<glyph unicode="S" horiz-adv-x="1019" d="M45 424h152q1 -19 3.5 -37t11 -51t21 -61t37 -59.5t55.5 -53.5t79 -36.5t106 -14.5q145 0 229 89.5t84 217.5q0 197 -202 274q-36 14 -105.5 34.5t-119.5 35.5t-111.5 46.5t-100 70t-65.5 103.5t-27 148q0 53 14 108t47.5 110.5t81.5 98t122.5 69t164.5 26.5 q101 0 182 -35.5t130.5 -94.5t75.5 -130t28 -149h-152q-1 33 -8.5 65.5t-27 71t-49 67.5t-81 48.5t-116.5 19.5q-67 0 -118.5 -24t-81.5 -64.5t-45 -88t-15 -100.5q0 -49 14 -86.5t36.5 -63.5t63 -47.5t81 -36t104.5 -32.5l58.5 -16.5t60.5 -20t65.5 -26.5t61.5 -33.5 t60 -43.5t49.5 -54.5t41.5 -68.5t25 -83t10 -100q0 -79 -29 -156t-83.5 -142t-145.5 -105t-203 -40q-200 0 -334.5 127.5t-134.5 323.5z" />
<glyph unicode="T" horiz-adv-x="872" d="M14 1378v138h844v-138h-346v-1378h-152v1378h-346z" />
<glyph unicode="U" horiz-adv-x="1341" d="M152 594v922h151v-922q0 -26 0.5 -44.5t4 -58t9.5 -69.5t19 -71.5t31 -72.5t46.5 -64t64 -54.5t85.5 -35t109 -13.5t109 13.5t85.5 35t64 54.5t46 64t30.5 72.5t19 71.5t9.5 69.5t4 58t0.5 44.5v922h152v-922q0 -162 -38 -283t-108.5 -194t-164 -108.5t-209.5 -35.5 t-209.5 35.5t-164 108.5t-108.5 194t-38 283z" />
<glyph unicode="V" horiz-adv-x="1437" d="M20 1516h166l531 -1328l534 1328h166l-629 -1516h-143z" />
<glyph unicode="W" horiz-adv-x="1966" d="M20 1516h158l371 -1321l362 1321h144l362 -1321l371 1321h158l-430 -1516h-199l-334 1241l-334 -1241h-198z" />
<glyph unicode="X" horiz-adv-x="1247" d="M16 0l514 774l-483 742h178l400 -609l397 609h178l-489 -742l520 -774h-178l-428 647l-430 -647h-179z" />
<glyph unicode="Y" horiz-adv-x="1212" d="M12 1516h166l428 -850l428 850h166l-518 -1008v-508h-152v508z" />
<glyph unicode="Z" horiz-adv-x="983" d="M35 0v137l741 1241h-719v138h891v-138l-741 -1241h764v-137h-936z" />
<glyph unicode="[" horiz-adv-x="718" d="M229 330v592q0 33 1.5 62.5t10.5 83.5t24.5 100t46.5 102t73 100t108 83.5t148 62.5v-156q-264 -100 -264 -438v-568q0 -59 4 -104t19.5 -102.5t42.5 -100.5t77.5 -83.5t120.5 -65.5v-156q-53 13 -103 36t-108 69.5t-101 108t-71.5 159t-28.5 215.5z" />
<glyph unicode="\" horiz-adv-x="1239" d="M172 1516h145l633 -1516h-143z" />
<glyph unicode="]" horiz-adv-x="718" d="M78 -102q264 100 264 438v567q0 59 -4 104t-19.5 103t-42.5 101t-77.5 83.5t-120.5 65.5v156q53 -13 102.5 -36t108 -69.5t101 -108t71 -159t28.5 -215.5v-592q0 -33 -1.5 -62.5t-10.5 -83.5t-24 -100t-46 -102t-73 -99.5t-108 -83.5t-148 -63v156z" />
<glyph unicode="^" horiz-adv-x="1236" d="M37 369l522 1147h119l522 -1147h-131l-451 991l-450 -991h-131z" />
<glyph unicode="_" horiz-adv-x="1024" d="M0 -137h1024v-119h-1024v119z" />
<glyph unicode="`" horiz-adv-x="774" d="M152 1473l65 122l406 -221l-68 -119z" />
<glyph unicode="a" horiz-adv-x="1398" d="M86 567q0 81 23 162.5t72 157t117.5 133t168 92.5t215.5 35q296 0 440 -221h4v194h144v-1120h-144v209h-4q-155 -236 -436 -236q-125 0 -235.5 44.5t-191 122t-127 188.5t-46.5 239zM238 555q0 -125 62 -227.5t164.5 -159.5t221.5 -57q184 0 312 128.5t128 313.5 q0 192 -127.5 324.5t-316.5 132.5q-185 0 -314.5 -131t-129.5 -324z" />
<glyph unicode="b" horiz-adv-x="1396" d="M129 0v1516h152v-588h4q72 111 184.5 165t245.5 54q119 0 219.5 -35.5t169 -94t116 -136t69.5 -160t22 -166.5q0 -123 -46 -231t-125.5 -185t-191 -121.5t-237.5 -44.5q-285 0 -435 220h-4v-193h-143zM272 553q0 -184 128 -313t311 -129q121 0 223.5 57t163.5 159.5 t61 227.5q0 195 -127.5 325t-316.5 130q-188 0 -315.5 -132t-127.5 -325z" />
<glyph unicode="c" horiz-adv-x="1325" d="M86 561q0 82 24 164t74.5 158t120 135t168 94t211.5 35q192 0 336 -99t211 -268h-170q-27 53 -63 93.5t-74.5 64.5t-73.5 39.5t-71.5 22t-56 8.5t-38.5 2q-193 0 -319.5 -129.5t-126.5 -317.5q0 -125 60.5 -229.5t162.5 -163.5t223 -59q118 0 218 56.5t159 160.5h168 q-24 -54 -56 -101.5t-80.5 -95t-106 -81.5t-135.5 -55.5t-167 -21.5q-139 0 -254.5 50.5t-189 134t-114 188t-40.5 215.5z" />
<glyph unicode="d" horiz-adv-x="1402" d="M90 567q0 80 23 161t72 156.5t117.5 134t167.5 93.5t214 35q290 0 434 -221h4v590h152v-1516h-144v205h-4q-75 -111 -188.5 -171.5t-249.5 -60.5q-165 0 -302 76t-216.5 212.5t-79.5 305.5zM242 555q0 -190 131.5 -317t314.5 -127q186 0 314 127.5t128 314.5 q0 195 -127 326t-319 131q-184 0 -313 -131t-129 -324z" />
<glyph unicode="e" horiz-adv-x="1331" d="M86 559q0 84 23.5 167t72.5 159t117 134.5t164 93t207 34.5q122 0 222 -39t164.5 -103t108.5 -149q45 -84 63 -172q18 -83 17 -169v-9h-1001q14 -170 132.5 -282.5t293.5 -112.5q130 0 234 68.5t157 185.5h158q-68 -182 -213.5 -287t-335.5 -105q-163 0 -297 76 t-210.5 210.5t-76.5 299.5zM244 643h837q-32 167 -147 267t-264 100q-160 0 -279 -103t-147 -264z" />
<glyph unicode="f" horiz-adv-x="643" d="M27 983v137h174v23q0 167 106.5 270t292.5 103h31v-138h-31q-23 0 -44 -2t-61.5 -14.5t-69 -35.5t-51 -70.5t-22.5 -112.5v-23h279v-137h-279v-983h-151v983h-174z" />
<glyph unicode="g" horiz-adv-x="1378" d="M86 557q0 163 74.5 298t207 213.5t294.5 78.5q152 0 265 -63.5t175 -180.5h4v217h143v-960q0 -125 -30.5 -227t-83 -170t-124.5 -114t-152.5 -66.5t-170.5 -20.5q-209 0 -359 111.5t-208 299.5h151q54 -131 170 -202.5t244 -71.5q81 0 146.5 19.5t107.5 49.5t73 74 t47 83.5t25 89t11 80t2 65.5v61h-4q-57 -117 -166 -182.5t-258 -65.5q-123 0 -232.5 47t-186 126t-121 186t-44.5 225zM238 565q0 -188 123 -321t311 -133q187 0 310.5 130t123.5 318q0 127 -60 231t-161 162t-221 58q-184 0 -305 -128.5t-121 -316.5z" />
<glyph unicode="h" horiz-adv-x="1249" d="M129 0v1516h152v-558q131 189 362 189q99 0 184.5 -32t155 -96t110 -174.5t40.5 -254.5v-590h-152v590q0 27 -1 50t-8.5 68.5t-20 82t-39.5 79.5t-63 72t-94 48.5t-130 19.5q-64 0 -120.5 -18.5t-109 -60.5t-83.5 -123.5t-31 -193.5v-614h-152z" />
<glyph unicode="i" horiz-adv-x="409" d="M129 0v1120h152v-1120h-152zM129 1257v259h152v-259h-152z" />
<glyph unicode="j" horiz-adv-x="415" d="M-92 -248q37 1 67.5 9.5t52.5 20.5t39.5 33t28.5 39t19 46t11.5 47.5t5.5 50t2.5 46t0.5 42.5v1034h152v-1034v-29v-35.5t-1 -32.5t-3 -38.5t-5 -34.5t-8 -40t-12 -36q-41 -106 -138.5 -169.5t-211.5 -63.5v145zM135 1257v259h152v-259h-152z" />
<glyph unicode="k" horiz-adv-x="1028" d="M129 0v1516h152v-1094l528 698h180l-434 -561l463 -559h-195l-364 442l-178 -229v-213h-152z" />
<glyph unicode="l" horiz-adv-x="409" d="M129 0v1516h152v-1516h-152z" />
<glyph unicode="m" horiz-adv-x="1921" d="M129 0v1120h143v-145h4q49 86 131.5 129t176.5 43q82 0 150.5 -21.5t113.5 -57.5t72 -68.5t45 -67.5q58 102 159.5 159.5t218.5 57.5q58 0 115 -13t120 -49t110 -91t77.5 -147t30.5 -210v-639h-151v641q0 88 -21.5 156.5t-54 107.5t-76 63.5t-81.5 33t-77 8.5 q-68 0 -129 -28.5t-98 -72.5q-21 -25 -35.5 -55.5t-21 -51t-10 -59.5t-3.5 -50v-52v-641h-151v641q0 168 -76.5 268.5t-226.5 100.5q-63 0 -113.5 -19t-81 -45.5t-53 -67t-33 -72t-16 -73t-6 -56.5t-0.5 -36v-641h-152z" />
<glyph unicode="n" horiz-adv-x="1249" d="M129 0v1120h143v-162h4q63 93 158.5 141t208.5 48q99 0 184.5 -32t155 -96t110 -174.5t40.5 -254.5v-590h-152v590q0 27 -1 50t-8.5 68.5t-20 82t-39.5 79.5t-63 72t-94 48.5t-130 19.5q-64 0 -120.5 -18.5t-109 -60.5t-83.5 -123.5t-31 -193.5v-614h-152z" />
<glyph unicode="o" horiz-adv-x="1341" d="M86 559q0 165 76.5 299.5t211 211.5t298.5 77t298 -77t210.5 -211.5t76.5 -299.5q0 -164 -77 -298.5t-211 -211t-297 -76.5q-122 0 -230.5 45t-186.5 122.5t-123.5 186.5t-45.5 232zM238 559q0 -192 123 -320t311 -128t311 128t123 320t-123 321.5t-311 129.5 t-311 -129.5t-123 -321.5z" />
<glyph unicode="p" horiz-adv-x="1396" d="M129 -393v1513h143v-192h4q49 69 111 116t124.5 67.5t109.5 28t94 7.5q142 0 258 -52t188 -137.5t111 -189.5t39 -213q0 -250 -171 -416t-429 -166q-77 0 -145 19t-111.5 44.5t-81.5 62t-55 60t-33 50.5h-4v-602h-152zM272 553q0 -188 124.5 -315t314.5 -127 q187 0 317.5 128.5t130.5 317.5q0 191 -128.5 322t-315.5 131q-192 0 -317.5 -132.5t-125.5 -324.5z" />
<glyph unicode="q" horiz-adv-x="1396" d="M86 555q0 107 38.5 210.5t110.5 189.5t188.5 139t258.5 53q293 0 438 -219h4v192h144v-1513h-152v602h-4q-150 -236 -426 -236q-126 0 -237.5 45t-191 122.5t-125.5 185.5t-46 229zM238 555q0 -126 62 -228.5t164.5 -159t221.5 -56.5q186 0 312 128t126 314 q0 192 -126 324.5t-316 132.5q-185 0 -314.5 -131t-129.5 -324z" />
<glyph unicode="r" horiz-adv-x="616" d="M129 0v1120h143v-162h4q45 90 132 140q82 47 178 47h12v-152q-57 -3 -110.5 -23.5t-101 -58t-76.5 -102t-29 -145.5v-664h-152z" />
<glyph unicode="s" horiz-adv-x="794" d="M45 330h152q-1 -11 -1 -22q0 -76 49 -132q56 -64 154 -65q92 0 144.5 57t52.5 137q0 33 -8 60.5t-25.5 48t-34 35t-47 28.5t-49 21.5t-53.5 19.5q-33 11 -53.5 18.5t-55 23t-56.5 31t-49 40t-42 52t-26 66t-11 82.5q0 136 88 226t236 90q137 1 224 -87q85 -86 85 -212v-6 h-152q1 74 -44.5 121t-116.5 47q-78 0 -123 -47t-45 -119q0 -46 18 -80.5t54.5 -58t66.5 -36t80 -28.5q36 -12 58.5 -20t56.5 -23.5t56 -30.5t47 -39t39.5 -51.5t24 -65t9.5 -81.5q0 -158 -96.5 -257.5t-264.5 -99.5q-165 0 -253.5 103.5t-88.5 253.5z" />
<glyph unicode="t" horiz-adv-x="694" d="M25 983v137h233v396h152v-396h260v-137h-260v-983h-152v983h-233z" />
<glyph unicode="u" horiz-adv-x="1245" d="M113 530v590h151v-590q0 -91 20.5 -163.5t55 -119.5t81 -78.5t96.5 -44.5t104 -13q50 0 96 10.5t92.5 38t80 71t54.5 114t21 161.5v614h151v-1120h-143v162h-4q-63 -94 -158 -141.5t-209 -47.5q-101 0 -186.5 31.5t-154.5 96.5t-108.5 174.5t-39.5 254.5z" />
<glyph unicode="v" d="M10 1120h164l393 -927l394 927h163l-479 -1120h-158z" />
<glyph unicode="w" horiz-adv-x="1701" d="M10 1120h160l354 -938l262 801h125l260 -801l361 938h160l-428 -1120h-174l-242 743l-238 -743h-174z" />
<glyph unicode="x" horiz-adv-x="983" d="M16 0l383 569l-383 551h179l297 -432l296 432h179l-385 -551l385 -569h-179l-296 449l-297 -449h-179z" />
<glyph unicode="y" horiz-adv-x="1097" d="M20 1120h181l352 -872l369 872h161l-647 -1513h-162l187 444z" />
<glyph unicode="z" horiz-adv-x="870" d="M20 0v137l611 846h-590v137h770v-137l-610 -846h649v-137h-830z" />
<glyph unicode="{" horiz-adv-x="718" d="M76 567v123q18 1 36 5t43 18t43.5 36.5t32 65t13.5 98.5v328q0 25 1 43.5t6.5 49t14.5 53t27.5 48.5t44 42.5t65 27.5t89.5 11h63v-123h-20q-36 0 -63 -8t-42.5 -25.5t-25 -32.5t-13 -41t-4 -38.5t-0.5 -37.5v-319q0 -238 -184 -260v-4q184 -22 184 -260v-320 q0 -21 0.5 -31.5t3 -33t7.5 -35.5t16 -30.5t26 -27.5t39.5 -17t55.5 -7h20v-123h-63q-50 0 -89.5 11t-65 27.5t-44 42t-27.5 48t-14.5 53t-6.5 49t-1 43.5v328q0 56 -13.5 98.5t-32 65t-43.5 36.5t-43 18t-36 5z" />
<glyph unicode="|" horiz-adv-x="1376" d="M623 0v1516h131v-1516h-131z" />
<glyph unicode="}" horiz-adv-x="718" d="M164 -135h20q31 0 55.5 7t39.5 17t26 27.5t16 30.5t7.5 35.5t3 33t0.5 31.5v320q0 238 184 260v4q-184 22 -184 260v319q0 25 -0.5 37.5t-4 38.5t-13 41t-25 32.5t-42.5 25.5t-63 8h-20v123h63q50 0 89.5 -11t65 -27.5t44 -42.5t27.5 -48.5t14.5 -53t6.5 -49t1 -43.5 v-328q0 -56 13.5 -98.5t32 -65t43.5 -36.5t43 -18t36 -5v-123q-18 -1 -36 -5t-43 -18t-43.5 -36.5t-32 -65t-13.5 -98.5v-328q0 -25 -1 -43.5t-6.5 -49t-14.5 -53t-27.5 -48t-44 -42t-65 -27.5t-89.5 -11h-63v123z" />
<glyph unicode="~" horiz-adv-x="1241" d="M104 532q56 118 133 180t160 62q70 0 168 -41q18 -7 87.5 -39.5t114.5 -47.5t81 -15q116 0 203 170l86 -96q-56 -111 -132 -169.5t-159 -58.5q-37 0 -82 13t-75.5 26t-110.5 49q-116 53 -181 53q-51 0 -96 -32.5t-70.5 -71t-42.5 -80.5z" />
<glyph unicode="&#xa4;" d="M53 614q0 177 99 310l-89 88l107 108l90 -88q136 101 315 101q161 0 299 -101l91 88l106 -108l-88 -88q98 -133 98 -320q0 -156 -98 -293l88 -86l-106 -108l-91 88q-136 -103 -317 -103q-156 0 -297 103l-90 -88l-107 108l89 86q-99 137 -99 303zM186 614 q2 -156 111 -267t266 -111q159 0 272 113t113 272q0 154 -108 262.5t-265 111.5q-108 2 -198 -48.5t-141 -139t-50 -193.5z" />
<glyph unicode="&#xa6;" horiz-adv-x="1376" d="M623 0v606h131v-606h-131zM623 909v607h131v-607h-131z" />
<glyph unicode="&#xa7;" horiz-adv-x="1259" d="M180 692q0 97 50.5 178.5t129.5 135.5q-88 82 -88 202q0 45 11 89t37.5 89t66 79t101 55.5t137.5 21.5q159 0 256.5 -78t107.5 -219h-143q-12 76 -71 119t-146 41q-101 -3 -153 -62t-52 -139q0 -64 35.5 -104t107.5 -76l258 -129q49 -25 80 -42.5t69 -45.5t59.5 -56 t36.5 -67.5t15 -85.5q0 -77 -44.5 -158t-120.5 -139q59 -41 85.5 -100.5t26.5 -120.5q0 -69 -26.5 -133.5t-75 -116.5t-125.5 -83.5t-170 -31.5q-183 0 -299.5 120t-118.5 298h143q0 -125 75.5 -201.5t199.5 -78.5q68 -1 119 21t77 58t38 72t12 72q0 33 -13 62t-31 49 t-45.5 39t-48.5 30t-48 24q-10 5 -15 7l-342 170q-75 37 -116.5 99t-41.5 136zM326 713q0 -32 12 -58.5t35 -46t41 -31t45 -24.5l362 -180q56 33 87.5 89t31.5 107q0 39 -13 70t-39 54t-48 37t-56 30l-338 168q-57 -37 -88.5 -96t-31.5 -119z" />
<glyph unicode="&#xa9;" horiz-adv-x="1529" d="M-16 758q0 158 62 303t167.5 250.5t250.5 168t304 62.5t303.5 -62t249 -167.5t166 -250.5t61.5 -304t-61.5 -304.5t-166 -250.5t-249 -167.5t-303.5 -62.5t-304.5 62.5t-250 168t-167 251t-62.5 303.5zM78 758q0 -188 92 -347t251 -251t347 -92q187 0 345 92t249.5 251 t91.5 347t-91.5 347t-249.5 251t-345 92q-188 0 -347 -92t-251 -251t-92 -347zM313 764q0 194 130 321t325 127q82 0 151 -22t110 -49.5t74.5 -66.5t45 -59.5t20.5 -41.5h-112q-92 145 -289 145q-91 0 -161.5 -33t-110.5 -86t-60 -113t-20 -122q0 -158 100 -258t258 -100 q24 0 52.5 4.5t72 17.5t87 45.5t75.5 79.5h113q-36 -65 -85.5 -113t-93 -71.5t-92.5 -37.5t-76.5 -17t-52.5 -3q-202 0 -331.5 124.5t-129.5 328.5z" />
<glyph unicode="&#xab;" horiz-adv-x="872" d="M82 616l233 410l119 -65l-194 -345l192 -344l-119 -65zM438 616l234 410l119 -65l-195 -345l192 -344l-118 -65z" />
<glyph unicode="&#xac;" horiz-adv-x="1241" d="M104 737v156h1033v-553h-156v397h-877z" />
<glyph unicode="&#xad;" horiz-adv-x="679" d="M61 547v137h557v-137h-557z" />
<glyph unicode="&#xae;" horiz-adv-x="1529" d="M-16 758q0 158 62 303t167.5 250.5t250.5 168t304 62.5t303.5 -62t249 -167.5t166 -250.5t61.5 -304t-61.5 -304.5t-166 -250.5t-249 -167.5t-303.5 -62.5t-304.5 62.5t-250 168t-167 251t-62.5 303.5zM78 758q0 -188 92 -347t251 -251t347 -92q187 0 345 92t249.5 251 t91.5 347t-91.5 347t-249.5 251t-345 92q-188 0 -347 -92t-251 -251t-92 -347zM498 319v875h272q83 0 147.5 -19t101.5 -48t60 -68.5t31 -75.5t8 -74q0 -106 -74 -181.5t-188 -78.5l250 -330h-123l-307 412h80q260 0 260 182q0 36 -11.5 66.5t-38.5 59t-81 45t-129 16.5 h-156v-781h-102z" />
<glyph unicode="&#xb0;" horiz-adv-x="819" d="M102 1208q0 128 90 218t218 90q126 0 216.5 -91t90.5 -217t-90.5 -216.5t-216.5 -90.5q-127 0 -217.5 90.5t-90.5 216.5zM184 1208q0 -94 66 -159.5t160 -65.5q93 0 159 65t66 160q0 93 -66 159.5t-161 66.5q-94 0 -159 -66t-65 -160z" />
<glyph unicode="&#xb1;" horiz-adv-x="1241" d="M104 0v156h1033v-156h-1033zM104 647v156h439v332h155v-332h439v-156h-439v-336h-155v336h-439z" />
<glyph unicode="&#xb5;" horiz-adv-x="1245" d="M137 -393v1513h152v-604q0 -90 21.5 -162t55.5 -116.5t79.5 -74t89 -41t88.5 -11.5t88.5 11.5t88.5 41t79 74t55.5 116.5t21.5 162v604h152v-1120h-143v174h-4q-106 -201 -338 -201q-211 0 -334 127v-493h-152z" />
<glyph unicode="&#xb6;" horiz-adv-x="1155" d="M76 1118q0 74 17.5 135t45 101.5t67.5 71t79.5 47.5t87 27t84 13t75.5 3h474v-1774h-152v1636h-233v-1636h-152v987q-173 -6 -283 104t-110 285z" />
<glyph unicode="&#xb7;" horiz-adv-x="567" d="M207 487v258h151v-258h-151z" />
<glyph unicode="&#xbb;" horiz-adv-x="872" d="M82 961l119 65l233 -410l-231 -409l-119 65l192 344zM438 961l119 65l234 -410l-232 -409l-119 65l193 344z" />
<glyph unicode="&#x2c6;" horiz-adv-x="1028" d="M152 1257l297 259h131l297 -259h-185l-178 150l-178 -150h-184z" />
<glyph unicode="&#x2dc;" horiz-adv-x="899" d="M152 1378q38 42 87 64t95 22q13 0 27 -2.5t23.5 -4.5t24.5 -8l20 -8t22 -10.5t18 -9.5q76 -39 109 -39q48 0 108 52l62 -99q-84 -80 -168 -80q-64 0 -138 43q-68 39 -114 39q-62 0 -115 -59z" />
<glyph unicode="&#x401;" horiz-adv-x="1097" d="M152 0v1516h831v-138h-680v-547h658v-137h-658v-557h680v-137h-831zM324 1597v258h151v-258h-151zM680 1597v258h151v-258h-151z" />
<glyph unicode="&#x402;" horiz-adv-x="1433" d="M16 1378v138h971v-138h-491v-473h346q32 0 60 -1.5t84 -11t101 -26t98.5 -51t89.5 -81t60.5 -121t24.5 -167.5q0 -91 -25 -164t-61.5 -118t-90.5 -78.5t-99 -49.5t-101.5 -25t-83 -10t-57.5 -1h-140v137h140q366 0 366 307q0 324 -366 324h-346v-768h-152v1378h-328z" />
<glyph unicode="&#x403;" horiz-adv-x="942" d="M152 0v1516h776v-138h-625v-1378h-151zM397 1712l394 238l71 -119l-395 -234z" />
<glyph unicode="&#x404;" horiz-adv-x="1665" d="M86 762q0 109 30.5 218t95 210.5t155 179.5t221.5 125t284 47q237 0 420.5 -108.5t278.5 -305.5h-180q-82 137 -219 207t-298 70q-127 0 -239 -44t-193.5 -121t-133.5 -182.5t-66 -226.5h925v-137h-925q16 -173 108.5 -307t232.5 -205t302 -71q146 0 286 72.5t226 211.5 h180q-36 -67 -82 -126t-109.5 -114.5t-137 -95t-167 -63t-196.5 -23.5q-156 0 -289.5 47t-225.5 125t-157.5 180.5t-96 213.5t-30.5 223z" />
<glyph unicode="&#x405;" horiz-adv-x="1019" d="M45 424h152q1 -19 3.5 -37t11 -51t21 -61t37 -59.5t55.5 -53.5t79 -36.5t106 -14.5q145 0 229 89.5t84 217.5q0 197 -202 274q-36 14 -105.5 34.5t-119.5 35.5t-111.5 46.5t-100 70t-65.5 103.5t-27 148q0 53 14 108t47.5 110.5t81.5 98t122.5 69t164.5 26.5 q101 0 182 -35.5t130.5 -94.5t75.5 -130t28 -149h-152q-1 33 -8.5 65.5t-27 71t-49 67.5t-81 48.5t-116.5 19.5q-67 0 -118.5 -24t-81.5 -64.5t-45 -88t-15 -100.5q0 -49 14 -86.5t36.5 -63.5t63 -47.5t81 -36t104.5 -32.5l58.5 -16.5t60.5 -20t65.5 -26.5t61.5 -33.5 t60 -43.5t49.5 -54.5t41.5 -68.5t25 -83t10 -100q0 -79 -29 -156t-83.5 -142t-145.5 -105t-203 -40q-200 0 -334.5 127.5t-134.5 323.5z" />
<glyph unicode="&#x406;" horiz-adv-x="462" d="M156 0v1516h151v-1516h-151z" />
<glyph unicode="&#x407;" horiz-adv-x="491" d="M47 1597v258h152v-258h-152zM170 0v1516h152v-1516h-152zM293 1597v258h151v-258h-151z" />
<glyph unicode="&#x408;" horiz-adv-x="987" d="M27 358h151q4 -47 20.5 -89t47.5 -78.5t82 -58t116 -21.5q38 0 70 8t55.5 20t41.5 32.5t30 39.5t20.5 47t13 49t6.5 52t2.5 49.5t0.5 46.5v1061h152v-1061q0 -482 -392 -482q-103 0 -183.5 32.5t-129.5 88t-75 122.5t-29 142z" />
<glyph unicode="&#x409;" horiz-adv-x="2129" d="M8 0l1045 1516h192v-627h348q95 0 172.5 -21t126.5 -53t85.5 -77.5t54.5 -86t28.5 -87t12.5 -71.5t2 -49q0 -198 -134 -321t-348 -123h-499v1319h-4l-902 -1319h-180zM1245 137h350q76 0 135.5 21t94.5 53t58 74.5t31.5 81t8.5 77.5t-8.5 77.5t-31.5 81t-58 75 t-94.5 53.5t-135.5 21h-350v-615z" />
<glyph unicode="&#x40a;" horiz-adv-x="2129" d="M152 0v1516h151v-627h791v627h151v-627h348q95 0 172.5 -21t126.5 -53t85.5 -77.5t54.5 -86t28.5 -87t12.5 -71.5t2 -49q0 -198 -134 -321t-348 -123h-499v752h-791v-752h-151zM1245 137h350q76 0 135.5 21t94.5 53t58 74.5t31.5 81t8.5 77.5t-8.5 77.5t-31.5 81t-58 75 t-94.5 53.5t-135.5 21h-350v-615z" />
<glyph unicode="&#x40b;" horiz-adv-x="1474" d="M16 1378v138h971v-138h-491v-473h358q95 0 172 -15t129 -39.5t90.5 -62t60 -75t34.5 -86.5t16.5 -89t3.5 -89v-449h-152v449q0 59 -6 101t-27.5 86t-59 70.5t-103.5 44t-158 17.5h-358v-768h-152v1378h-328z" />
<glyph unicode="&#x40c;" horiz-adv-x="1228" d="M152 0v1516h151v-1516h-151zM408 776l583 740h180l-583 -723l608 -793h-188zM500 1712l393 238l72 -119l-396 -234z" />
<glyph unicode="&#x40e;" horiz-adv-x="1269" d="M10 1516h172l494 -957l426 957h158l-687 -1516h-157l178 395zM295 1884h147q7 -69 61.5 -114.5t160.5 -45.5t160 45.5t61 114.5h147q-11 -125 -106.5 -206t-261.5 -81t-262 81t-107 206z" />
<glyph unicode="&#x40f;" horiz-adv-x="1392" d="M152 0v1516h151v-1379h787v1379h151v-1516h-469v-393h-151v393h-469z" />
<glyph unicode="&#x410;" horiz-adv-x="1515" d="M23 0l653 1516h168l649 -1516h-164l-219 508h-704l-220 -508h-163zM465 645h586l-291 694z" />
<glyph unicode="&#x411;" horiz-adv-x="1187" d="M152 0v1516h823v-138h-672v-489h348q95 0 172.5 -21t126.5 -53t85.5 -77.5t54.5 -86t28.5 -87t12.5 -71.5t2 -49q0 -198 -134 -321t-348 -123h-499zM303 137h350q76 0 135.5 21t94.5 53t58 74.5t31.5 81t8.5 77.5t-8.5 77.5t-31.5 81t-58 75t-94.5 53.5t-135.5 21h-350 v-615z" />
<glyph unicode="&#x412;" horiz-adv-x="1175" d="M152 0v1516h378q502 0 502 -400q0 -192 -182 -303q132 -39 198 -147t66 -238q0 -30 -4 -61.5t-18 -75t-37 -82t-65 -78t-97.5 -67.5t-139.5 -46t-186 -18h-415zM303 137h264q394 0 394 289q0 303 -394 303h-264v-592zM303 866h227q351 0 351 256q0 52 -14 93t-35.5 67.5 t-54.5 45.5t-61.5 28.5t-68 14.5t-62.5 6t-55 1h-227v-512z" />
<glyph unicode="&#x413;" horiz-adv-x="942" d="M152 0v1516h776v-138h-625v-1378h-151z" />
<glyph unicode="&#x414;" horiz-adv-x="1597" d="M14 137h138l565 1379h164l565 -1379h137v-424h-151v287h-1266v-287h-152v424zM315 137h967l-483 1184z" />
<glyph unicode="&#x415;" horiz-adv-x="1097" d="M152 0v1516h831v-138h-680v-547h658v-137h-658v-557h680v-137h-831z" />
<glyph unicode="&#x416;" horiz-adv-x="1884" d="M10 0l604 805l-559 711h181l563 -725l-600 -791h-189zM866 0v1516h152v-1516h-152zM1085 791l564 725h180l-559 -711l604 -805h-188z" />
<glyph unicode="&#x417;" horiz-adv-x="1105" d="M61 463h152q-2 -68 17 -129.5t59 -112t108.5 -80.5t157.5 -30q162 0 250 83.5t88 213.5q0 63 -20 116.5t-61 97t-110.5 68.5t-160.5 25h-90v137h90q73 0 129.5 18.5t90 47t55 68t29 76t7.5 75.5q0 45 -14.5 89t-45 86t-88.5 67.5t-135 25.5q-141 0 -215 -83.5t-71 -201.5 h-152q-2 81 23 155t76 134.5t138 96.5t199 36q113 0 199.5 -35t137 -94.5t75.5 -129.5t25 -148q0 -128 -64.5 -212.5t-165.5 -129.5q128 -33 199 -137.5t71 -243.5q0 -85 -30 -162t-88 -140t-154 -100t-217 -37q-125 0 -224 41.5t-158.5 111t-88.5 156.5t-23 181z" />
<glyph unicode="&#x418;" horiz-adv-x="1515" d="M152 0v1516h151v-1301l901 1301h160v-1516h-152v1300l-901 -1300h-159z" />
<glyph unicode="&#x419;" horiz-adv-x="1515" d="M152 0v1516h151v-1301l901 1301h160v-1516h-152v1300l-901 -1300h-159zM389 1884h148q7 -69 61 -114.5t160 -45.5t160 45.5t61 114.5h147q-11 -125 -106.5 -206t-261.5 -81t-262 81t-107 206z" />
<glyph unicode="&#x41a;" horiz-adv-x="1228" d="M152 0v1516h151v-1516h-151zM408 776l583 740h180l-583 -723l608 -793h-188z" />
<glyph unicode="&#x41b;" horiz-adv-x="1433" d="M18 0l629 1516h144l624 -1516h-166l-530 1325l-535 -1325h-166z" />
<glyph unicode="&#x41c;" horiz-adv-x="1882" d="M152 0v1516h233l557 -1291l557 1291h234v-1516h-152v1346l-575 -1346h-127l-576 1346v-1346h-151z" />
<glyph unicode="&#x41d;" horiz-adv-x="1398" d="M152 0v1516h151v-668h793v668h151v-1516h-151v711h-793v-711h-151z" />
<glyph unicode="&#x41e;" horiz-adv-x="1779" d="M86 754q0 168 62.5 315t169.5 250.5t255.5 163t315.5 59.5q224 0 407.5 -99t289.5 -277t106 -400q0 -168 -62.5 -315.5t-169.5 -252t-255.5 -165t-315.5 -60.5q-221 0 -404.5 99.5t-291 279t-107.5 402.5zM238 754q0 -187 87 -334.5t235.5 -228t330.5 -80.5t330.5 84 t233.5 234.5t85 336.5q0 185 -86 331.5t-234 227t-329 80.5q-183 0 -332.5 -83.5t-235 -233t-85.5 -334.5z" />
<glyph unicode="&#x41f;" horiz-adv-x="1392" d="M152 0v1516h1089v-1516h-151v1378h-787v-1378h-151z" />
<glyph unicode="&#x420;" horiz-adv-x="1212" d="M152 0v1516h479q127 0 224 -31.5t152 -78.5t89.5 -111t45.5 -119.5t11 -114.5q0 -88 -28.5 -166t-88 -144t-163.5 -104.5t-242 -38.5h-328v-608h-151zM303 745h330q97 0 170.5 26.5t115.5 72.5t62 100.5t20 116.5q0 64 -20 118.5t-62 100t-115.5 72t-170.5 26.5h-330 v-633z" />
<glyph unicode="&#x421;" horiz-adv-x="1665" d="M86 762q0 166 61.5 311.5t167 248t250.5 161.5t307 59q236 0 420 -109t279 -305h-180q-18 28 -38 54t-67.5 70t-100.5 74.5t-136 54.5t-175 24q-139 0 -259.5 -52t-202 -139.5t-128 -205t-46.5 -246.5q0 -183 86.5 -333t234.5 -234t326 -84q147 0 285.5 71.5t226.5 212.5 h180q-106 -199 -288 -310.5t-404 -111.5q-165 0 -312 58.5t-254.5 161.5t-170 251t-62.5 318z" />
<glyph unicode="&#x422;" horiz-adv-x="872" d="M14 1378v138h844v-138h-346v-1378h-152v1378h-346z" />
<glyph unicode="&#x423;" horiz-adv-x="1269" d="M10 1516h172l494 -957l426 957h158l-687 -1516h-157l178 395z" />
<glyph unicode="&#x424;" horiz-adv-x="1679" d="M86 793q0 186 87.5 335.5t242.5 234t348 85.5v190h151v-190q193 -1 348 -85.5t242.5 -234t87.5 -335.5t-87.5 -336t-242.5 -234.5t-348 -85.5v-213h-151v213q-193 1 -348 85.5t-242.5 234.5t-87.5 336zM238 793q0 -143 62.5 -261t184 -188.5t279.5 -69.5v1037 q-158 1 -279.5 -69.5t-184 -188t-62.5 -260.5zM915 274q119 -1 219 40t167 112t104 165.5t37 201.5q0 143 -62.5 260.5t-184.5 188t-280 69.5v-1037z" />
<glyph unicode="&#x425;" horiz-adv-x="1247" d="M16 0l514 774l-483 742h178l400 -609l397 609h178l-489 -742l520 -774h-178l-428 647l-430 -647h-179z" />
<glyph unicode="&#x426;" horiz-adv-x="1474" d="M152 0v1516h151v-1379h787v1379h151v-1379h211v-424h-152v287h-1148z" />
<glyph unicode="&#x427;" horiz-adv-x="1269" d="M102 1065v451h152v-451q0 -177 90 -252q82 -68 264 -68h359v771h151v-1516h-151v608h-359q-248 0 -370 99q-45 36 -74.5 80t-41.5 94.5t-16 90t-4 93.5z" />
<glyph unicode="&#x428;" horiz-adv-x="1966" d="M152 0v1516h151v-1379h604v1379h152v-1379h604v1379h152v-1516h-1663z" />
<glyph unicode="&#x429;" horiz-adv-x="2048" d="M152 0v1516h151v-1379h604v1379h152v-1379h604v1379h152v-1379h210v-424h-151v287h-1722z" />
<glyph unicode="&#x42a;" horiz-adv-x="1392" d="M14 1378v138h494v-627h348q228 0 354.5 -120t126.5 -325q0 -198 -133 -321t-348 -123h-500v1378h-342zM508 137h350q76 0 135.5 21t94.5 53t58 74.5t31.5 81t8.5 77.5t-8.5 77.5t-31.5 81t-58 75t-94.5 53.5t-135.5 21h-350v-615z" />
<glyph unicode="&#x42b;" horiz-adv-x="1597" d="M152 0v1516h151v-627h348q228 0 355 -120t127 -325q0 -198 -133.5 -321t-348.5 -123h-499zM303 137h350q76 0 135.5 21t94.5 53t58 74.5t31.5 81t8.5 77.5t-8.5 77.5t-31.5 81t-58 75t-94.5 53.5t-135.5 21h-350v-615zM1294 0v1516h152v-1516h-152z" />
<glyph unicode="&#x42c;" horiz-adv-x="1187" d="M152 0v1516h151v-627h348q228 0 355 -120t127 -325q0 -198 -133.5 -321t-348.5 -123h-499zM303 137h350q76 0 135.5 21t94.5 53t58 74.5t31.5 81t8.5 77.5t-8.5 77.5t-31.5 81t-58 75t-94.5 53.5t-135.5 21h-350v-615z" />
<glyph unicode="&#x42d;" horiz-adv-x="1665" d="M88 395h180q86 -139 226 -211.5t286 -72.5q162 0 302.5 72t232.5 206t108 305h-884v137h884q-14 119 -66.5 224t-133.5 182.5t-193 122.5t-239 45q-160 0 -297.5 -70t-219.5 -207h-180q95 197 278.5 305.5t420.5 108.5q154 0 285.5 -47.5t222 -126t154.5 -180t94 -210 t30 -216.5q0 -170 -62.5 -318t-169.5 -251t-254 -161.5t-313 -58.5q-222 0 -404 111.5t-288 310.5z" />
<glyph unicode="&#x42e;" horiz-adv-x="2211" d="M152 0v1516h151v-668h270q24 210 134 369.5t276 242t363 82.5q164 0 308 -58t248 -159t164 -246t60 -313q0 -170 -61 -318t-166 -252t-248.5 -163.5t-304.5 -59.5q-123 0 -236.5 32.5t-209.5 95.5t-168.5 151.5t-115 206t-47.5 252.5h-266v-711h-151zM719 754 q0 -139 49 -259.5t133.5 -204.5t200 -131.5t246.5 -47.5q175 0 318 84t225.5 234.5t82.5 336.5q0 138 -48.5 257.5t-132 203t-199 131t-246.5 47.5q-176 0 -320 -84t-226.5 -233.5t-82.5 -333.5z" />
<glyph unicode="&#x42f;" horiz-adv-x="1228" d="M51 1020q0 101 29 182t72 131.5t106 88t115.5 54.5t118 27t96 11.5t65.5 1.5h424v-1516h-151v1378h-273q-103 0 -183.5 -20.5t-130 -53.5t-81 -79t-43.5 -92.5t-12 -98.5q0 -71 21 -127.5t52 -92t77.5 -61.5t85.5 -38.5t88 -19.5t73 -8t53 -1h121l-493 -686h-189l414 565 q-136 7 -240.5 70.5t-159.5 164t-55 220.5z" />
<glyph unicode="&#x430;" horiz-adv-x="1398" d="M86 567q0 81 23 162.5t72 157t117.5 133t168 92.5t215.5 35q296 0 440 -221h4v194h144v-1120h-144v209h-4q-155 -236 -436 -236q-125 0 -235.5 44.5t-191 122t-127 188.5t-46.5 239zM238 555q0 -125 62 -227.5t164.5 -159.5t221.5 -57q184 0 312 128.5t128 313.5 q0 192 -127.5 324.5t-316.5 132.5q-185 0 -314.5 -131t-129.5 -324z" />
<glyph unicode="&#x431;" horiz-adv-x="1351" d="M86 702q0 140 22.5 254.5t58.5 193t91 138t109 93.5t123.5 57t124.5 32t122 13l482 33v-138l-482 -32q-42 -3 -73.5 -7t-86.5 -17.5t-95.5 -34.5t-89.5 -61t-81.5 -93t-57 -133.5t-30.5 -180.5h4q34 76 88.5 133t106.5 85.5t111.5 46t94 21t64.5 3.5q256 0 415 -155 t159 -412q0 -122 -42.5 -227.5t-117.5 -180.5t-183 -117.5t-235 -42.5q-102 0 -190.5 25t-165 81t-130.5 139.5t-85 207t-31 276.5zM262 541q0 -184 121 -307t305 -123q189 0 307.5 123.5t118.5 306.5q0 193 -119.5 311.5t-306.5 118.5q-185 0 -305.5 -123t-120.5 -307z" />
<glyph unicode="&#x432;" horiz-adv-x="983" d="M129 0v1120h401q76 0 135 -18.5t95.5 -47.5t60 -69.5t32.5 -80.5t9 -83q0 -79 -40.5 -140t-108.5 -91q86 -23 138 -95.5t52 -170.5q0 -138 -94.5 -231t-265.5 -93h-414zM281 137h245q63 0 109.5 17.5t70.5 46.5t35 59t11 62q0 15 -2.5 30t-9 38t-22.5 42t-39.5 36.5 t-63 27.5t-89.5 10h-245v-369zM281 643h239q89 0 140 48t51 130q0 162 -191 162h-239v-340z" />
<glyph unicode="&#x433;" horiz-adv-x="737" d="M129 0v1120h584v-137h-432v-983h-152z" />
<glyph unicode="&#x434;" horiz-adv-x="1310" d="M20 137h117l436 983h164l437 -983h116v-424h-151v287h-967v-287h-152v424zM301 137h709l-355 813z" />
<glyph unicode="&#x435;" horiz-adv-x="1331" d="M86 559q0 84 23.5 167t72.5 159t117 134.5t164 93t207 34.5q122 0 222 -39t164.5 -103t108.5 -149t62.5 -172.5t17.5 -177.5h-1001q14 -170 132.5 -282.5t293.5 -112.5q130 0 234 68.5t157 185.5h158q-68 -182 -213.5 -287t-335.5 -105q-163 0 -297 76t-210.5 210.5 t-76.5 299.5zM244 643h837q-32 167 -147 267t-264 100q-160 0 -279 -103t-147 -264z" />
<glyph unicode="&#x436;" horiz-adv-x="1556" d="M12 0l459 584l-418 536h178l418 -553l-446 -567h-191zM702 0v1120h152v-1120h-152zM907 567l418 553h178l-418 -536l459 -584h-190z" />
<glyph unicode="&#x437;" horiz-adv-x="942" d="M82 322h151q0 -94 64.5 -152.5t179.5 -58.5q70 0 119.5 21t72 54t31.5 61.5t9 55.5q0 38 -10 70.5t-34 64t-72 50t-116 18.5h-100v137h100q98 0 150.5 55.5t52.5 135.5q0 75 -49.5 125.5t-143.5 50.5q-95 0 -150.5 -45t-66.5 -119h-151q7 80 42.5 140.5t88.5 94t111 50 t118 16.5q65 0 125 -16.5t112 -49.5t83.5 -92t31.5 -135q0 -89 -43 -162.5t-126 -105.5q96 -26 147 -100.5t51 -178.5q0 -147 -106.5 -240.5t-276.5 -93.5q-102 0 -180 28.5t-124 77.5t-69 110.5t-22 132.5z" />
<glyph unicode="&#x438;" horiz-adv-x="1228" d="M129 0v1120h152v-905l667 905h152v-1120h-152v905l-667 -905h-152z" />
<glyph unicode="&#x439;" horiz-adv-x="1228" d="M129 0v1120h152v-905l667 905h152v-1120h-152v905l-667 -905h-152zM303 1516h129q11 -68 63 -105t119 -37t119.5 37t63.5 105h129q-8 -47 -29 -90t-57 -82.5t-94.5 -63t-131.5 -23.5t-131.5 23.5t-94 63t-56.5 82.5t-29 90z" />
<glyph unicode="&#x43a;" horiz-adv-x="1024" d="M129 0v1120h152v-1120h-152zM369 567l438 553h178l-430 -540l459 -580h-195z" />
<glyph unicode="&#x43b;" horiz-adv-x="1146" d="M16 0l480 1120h157l477 -1120h-163l-394 928l-393 -928h-164z" />
<glyph unicode="&#x43c;" horiz-adv-x="1474" d="M129 0v1120h233l375 -915l375 915h234v-1120h-152v952l-391 -952h-131l-391 952v-952h-152z" />
<glyph unicode="&#x43d;" horiz-adv-x="1187" d="M129 0v1120h152v-477h626v477h152v-1120h-152v506h-626v-506h-152z" />
<glyph unicode="&#x43e;" horiz-adv-x="1341" d="M86 559q0 165 76.5 299.5t211 211.5t298.5 77t298 -77t210.5 -211.5t76.5 -299.5q0 -164 -77 -298.5t-211 -211t-297 -76.5q-122 0 -230.5 45t-186.5 122.5t-123.5 186.5t-45.5 232zM238 559q0 -192 123 -320t311 -128t311 128t123 320t-123 321.5t-311 129.5 t-311 -129.5t-123 -321.5z" />
<glyph unicode="&#x43f;" horiz-adv-x="1187" d="M129 0v1120h930v-1120h-152v983h-626v-983h-152z" />
<glyph unicode="&#x440;" horiz-adv-x="1396" d="M129 -393v1513h143v-192h4q49 69 111 116t124.5 67.5t109.5 28t94 7.5q142 0 258 -52t188 -137.5t111 -189.5t39 -213q0 -250 -171 -416t-429 -166q-77 0 -145 19t-111.5 44.5t-81.5 62t-55 60t-33 50.5h-4v-602h-152zM272 553q0 -188 124.5 -315t314.5 -127 q187 0 317.5 128.5t130.5 317.5q0 191 -128.5 322t-315.5 131q-192 0 -317.5 -132.5t-125.5 -324.5z" />
<glyph unicode="&#x441;" horiz-adv-x="1325" d="M86 561q0 82 24 164t74.5 158t120 135t168 94t211.5 35q192 0 336 -99t211 -268h-170q-27 53 -63 93.5t-74.5 64.5t-73.5 39.5t-71.5 22t-56 8.5t-38.5 2q-193 0 -319.5 -129.5t-126.5 -317.5q0 -125 60.5 -229.5t162.5 -163.5t223 -59q118 0 218 56.5t159 160.5h168 q-24 -54 -56 -101.5t-80.5 -95t-106 -81.5t-135.5 -55.5t-167 -21.5q-139 0 -254.5 50.5t-189 134t-114 188t-40.5 215.5z" />
<glyph unicode="&#x442;" horiz-adv-x="778" d="M25 983v137h729v-137h-289v-983h-152v983h-288z" />
<glyph unicode="&#x443;" horiz-adv-x="1097" d="M20 1120h181l352 -872l369 872h161l-647 -1513h-162l187 444z" />
<glyph unicode="&#x444;" horiz-adv-x="1515" d="M86 555q0 154 72.5 285t210 214.5t313.5 92.5v369h152v-369q176 -9 313.5 -92.5t210 -214.5t72.5 -285q0 -74 -22.5 -150.5t-71.5 -151.5t-117.5 -134.5t-168.5 -99t-216 -46.5v-366h-152v366q-116 7 -216 46.5t-168.5 99t-117.5 134.5t-71.5 151.5t-22.5 150.5zM238 553 q0 -81 29 -157t83 -138.5t140.5 -102t191.5 -44.5v899q-195 -5 -319.5 -132t-124.5 -325zM834 111q105 5 191.5 44.5t140.5 102t83 138.5t29 157q0 198 -124.5 325t-319.5 132v-899z" />
<glyph unicode="&#x445;" horiz-adv-x="983" d="M16 0l383 569l-383 551h179l297 -432l296 432h179l-385 -551l385 -569h-179l-296 449l-297 -449h-179z" />
<glyph unicode="&#x446;" horiz-adv-x="1269" d="M129 0v1120h152v-983h630v983h152v-983h182v-424h-151v287h-965z" />
<glyph unicode="&#x447;" horiz-adv-x="1064" d="M106 803v317h152v-317q0 -44 2.5 -72t15.5 -64.5t39 -60.5q24 -23 62 -34t58.5 -12t60.5 -1h288v561h152v-1120h-152v422h-288q-110 0 -183.5 18.5t-130.5 81.5q-49 56 -62.5 119.5t-13.5 161.5z" />
<glyph unicode="&#x448;" horiz-adv-x="1679" d="M129 0v1120h152v-983h483v983h151v-983h484v983h151v-1120h-1421z" />
<glyph unicode="&#x449;" horiz-adv-x="1761" d="M129 0v1120h152v-983h483v983h151v-983h484v983h151v-983h187v-424h-152v287h-1456z" />
<glyph unicode="&#x44a;" horiz-adv-x="1187" d="M25 983v137h419v-428h291q81 0 146 -18t106 -49t70 -66.5t43 -77t20 -73.5t6 -62q0 -42 -10 -85.5t-37 -91.5t-68.5 -84.5t-110 -60.5t-155.5 -24h-452v983h-268zM444 137h299q113 0 172.5 60.5t59.5 148.5t-59.5 148.5t-172.5 60.5h-299v-418z" />
<glyph unicode="&#x44b;" horiz-adv-x="1392" d="M129 0v1120h152v-428h301q87 0 155.5 -24t110 -60.5t68.5 -84.5t37 -91.5t10 -85.5t-10 -85.5t-37 -91.5t-68.5 -84.5t-110 -60.5t-155.5 -24h-453zM281 137h299q113 0 172 60t59 149t-59 149t-172 60h-299v-418zM1112 0v1120h152v-1120h-152z" />
<glyph unicode="&#x44c;" horiz-adv-x="1024" d="M129 0v1120h152v-428h301q87 0 155.5 -24t110 -60.5t68.5 -84.5t37 -91.5t10 -85.5t-10 -85.5t-37 -91.5t-68.5 -84.5t-110 -60.5t-155.5 -24h-453zM281 137h299q113 0 172 60t59 149t-59 149t-172 60h-299v-418z" />
<glyph unicode="&#x44d;" horiz-adv-x="1325" d="M94 780q9 21 18.5 40.5t34.5 59t53 72t73.5 70.5t97 64t122.5 43.5t150 17.5q143 0 259.5 -53t188 -138.5t110 -187.5t38.5 -207q0 -111 -40 -215.5t-113 -188t-188.5 -134t-254.5 -50.5q-188 0 -332.5 90t-214.5 265h168q30 -57 74 -100t95 -68t103.5 -37t106.5 -12 q168 0 293 113t147 282h-637v137h635q-30 169 -155 268t-283 99q-122 0 -220.5 -61t-158.5 -169h-170z" />
<glyph unicode="&#x44e;" horiz-adv-x="1761" d="M129 0v1120h152v-477h231q31 219 191.5 361.5t388.5 142.5q164 0 297.5 -77t209.5 -211.5t76 -299.5q0 -164 -76.5 -298.5t-210 -211t-296.5 -76.5q-227 0 -394 146.5t-190 386.5h-227v-506h-152zM657 559q0 -191 123.5 -319.5t311.5 -128.5q186 0 309 129t123 319 q0 192 -122.5 321.5t-309.5 129.5q-188 0 -311.5 -129.5t-123.5 -321.5z" />
<glyph unicode="&#x44f;" horiz-adv-x="1064" d="M70 752q0 72 27.5 137.5t78 117.5t130.5 82.5t177 30.5h453v-1120h-152v983h-301q-13 0 -25.5 -0.5t-40.5 -5.5t-51.5 -13.5t-51.5 -26.5t-47.5 -42.5t-32.5 -63.5t-13 -88q0 -101 64 -163t198 -62h154l-373 -518h-174l305 399q-145 10 -235 108.5t-90 244.5z" />
<glyph unicode="&#x451;" horiz-adv-x="1331" d="M86 559q0 84 23.5 167t72.5 159t117 134.5t164 93t207 34.5q122 0 222 -39t164.5 -103t108.5 -149t62.5 -172.5t17.5 -177.5h-1001q14 -170 132.5 -282.5t293.5 -112.5q130 0 234 68.5t157 185.5h158q-68 -182 -213.5 -287t-335.5 -105q-163 0 -297 76t-210.5 210.5 t-76.5 299.5zM244 643h837q-32 167 -147 267t-264 100q-160 0 -279 -103t-147 -264zM444 1257v259h152v-259h-152zM745 1257v259h152v-259h-152z" />
<glyph unicode="&#x452;" horiz-adv-x="1249" d="M-76 1253v138h205v125h152v-125h585v-138h-585v-376q130 188 362 188q99 0 184.5 -32t155 -96t110 -174.5t40.5 -254.5v-422q0 -37 -2 -70t-12 -84t-26 -93t-48 -87t-75 -76t-109 -50.5t-148 -18.5v145q55 0 98.5 13.5t71 32.5t47.5 50.5t29.5 57t14.5 64.5t6 60.5 t1 55.5v422q0 27 -1 50t-8.5 68.5t-20 82t-39.5 79.5t-63 72t-94 48.5t-130 19.5q-64 0 -120.5 -18.5t-109 -60.5t-83.5 -123.5t-31 -193.5v-532h-152v1253h-205z" />
<glyph unicode="&#x453;" horiz-adv-x="737" d="M129 0v1120h584v-137h-432v-983h-152zM233 1370l394 238l71 -119l-395 -234z" />
<glyph unicode="&#x454;" horiz-adv-x="1325" d="M86 561q0 168 80.5 303t217.5 209t302 74q195 0 336.5 -99.5t208.5 -267.5h-170q-24 53 -59 93.5t-73.5 64.5t-74 39.5t-72.5 22t-57.5 8.5t-38.5 2q-78 0 -150.5 -24t-132.5 -69t-102.5 -116t-56.5 -158h659v-137h-661q19 -171 146 -283t298 -112q116 0 215.5 56 t159.5 161h168q-19 -42 -42.5 -81.5t-70.5 -92t-103 -90.5t-142 -64.5t-185 -26.5q-142 0 -258.5 50t-189.5 133.5t-112.5 188t-39.5 216.5z" />
<glyph unicode="&#x455;" horiz-adv-x="794" d="M45 330h152q-8 -90 48 -154.5t154 -64.5q92 0 144.5 57t52.5 137q0 106 -98 164q-26 15 -73.5 33t-89.5 32t-89.5 39.5t-81 56t-56 83t-22.5 118.5q0 136 88 226t236 90q137 0 224 -87.5t85 -217.5h-152q1 74 -44.5 121t-116.5 47q-78 0 -123 -47t-45 -119 q0 -46 18 -80.5t54.5 -58t66.5 -36t80 -28.5q36 -12 58.5 -20t56.5 -23.5t56 -30.5t47 -39t39.5 -51.5t24 -65t9.5 -81.5q0 -159 -95 -258t-254 -99q-90 0 -160 30.5t-111.5 82t-62 113.5t-20.5 131z" />
<glyph unicode="&#x456;" horiz-adv-x="409" d="M129 0v1120h152v-1120h-152zM129 1257v259h152v-259h-152z" />
<glyph unicode="&#x457;" horiz-adv-x="532" d="M53 1257v259h152v-259h-152zM190 0v1120h152v-1120h-152zM328 1257v259h151v-259h-151z" />
<glyph unicode="&#x458;" horiz-adv-x="415" d="M-92 -248q37 1 67.5 9.5t52.5 20.5t39.5 33t28.5 39t19 46t11.5 47.5t5.5 50t2.5 46t0.5 42.5v1034h152v-1034v-29v-35.5t-1 -32.5t-3 -38.5t-5 -34.5t-8 -40t-12 -36q-41 -106 -138.5 -169.5t-211.5 -63.5v145zM135 1257v259h152v-259h-152z" />
<glyph unicode="&#x459;" horiz-adv-x="1720" d="M25 0l759 1120h193v-428h301q87 0 155.5 -24t110 -60.5t68.5 -84.5t37 -91.5t10 -85.5t-10 -85.5t-37 -91.5t-68.5 -84.5t-110 -60.5t-155.5 -24h-453v928h-4l-616 -928h-180zM977 137h299q113 0 172 60t59 149t-59 149t-172 60h-299v-418z" />
<glyph unicode="&#x45a;" horiz-adv-x="1755" d="M129 0v1120h152v-428h579v428h152v-428h301q87 0 155.5 -24t110 -60.5t68.5 -84.5t37 -91.5t10 -85.5t-10 -85.5t-37 -91.5t-68.5 -84.5t-110 -60.5t-155.5 -24h-453v555h-579v-555h-152zM1012 137h299q113 0 172 60t59 149t-59 149t-172 60h-299v-418z" />
<glyph unicode="&#x45b;" horiz-adv-x="1249" d="M-76 1253v138h205v125h152v-125h585v-138h-585v-376q130 188 362 188q99 0 184.5 -32t155 -96t110 -174.5t40.5 -254.5v-508h-152v508q0 27 -1 50t-8.5 68.5t-20 82t-39.5 79.5t-63 72t-94 48.5t-130 19.5q-64 0 -120.5 -18.5t-109 -60.5t-83.5 -123.5t-31 -193.5v-532 h-152v1253h-205z" />
<glyph unicode="&#x45c;" horiz-adv-x="1024" d="M129 0v1120h152v-1120h-152zM369 567l438 553h178l-430 -540l459 -580h-195zM397 1370l394 238l71 -119l-395 -234z" />
<glyph unicode="&#x45e;" horiz-adv-x="1097" d="M20 1120h181l352 -872l369 872h161l-647 -1513h-162l187 444zM274 1516h129q11 -68 63.5 -105t119.5 -37t119 37t63 105h129q-8 -47 -29 -90t-56.5 -82.5t-94 -63t-131.5 -23.5t-131.5 23.5t-94.5 63t-57 82.5t-29 90z" />
<glyph unicode="&#x45f;" horiz-adv-x="1187" d="M129 0v1120h152v-983h626v983h152v-1120h-389v-328h-152v328h-389z" />
<glyph unicode="&#x490;" horiz-adv-x="942" d="M152 0v1516h624v245h152v-383h-625v-1378h-151z" />
<glyph unicode="&#x491;" horiz-adv-x="737" d="M129 0v1120h432v232h152v-369h-432v-983h-152z" />
<glyph unicode="&#x2000;" horiz-adv-x="975" />
<glyph unicode="&#x2001;" horiz-adv-x="1950" />
<glyph unicode="&#x2002;" horiz-adv-x="975" />
<glyph unicode="&#x2003;" horiz-adv-x="1950" />
<glyph unicode="&#x2004;" horiz-adv-x="650" />
<glyph unicode="&#x2005;" horiz-adv-x="487" />
<glyph unicode="&#x2006;" horiz-adv-x="325" />
<glyph unicode="&#x2007;" horiz-adv-x="325" />
<glyph unicode="&#x2008;" horiz-adv-x="243" />
<glyph unicode="&#x2009;" horiz-adv-x="390" />
<glyph unicode="&#x200a;" horiz-adv-x="108" />
<glyph unicode="&#x2010;" horiz-adv-x="679" d="M61 547v137h557v-137h-557z" />
<glyph unicode="&#x2011;" horiz-adv-x="679" d="M61 547v137h557v-137h-557z" />
<glyph unicode="&#x2012;" horiz-adv-x="679" d="M61 547v137h557v-137h-557z" />
<glyph unicode="&#x2013;" horiz-adv-x="1024" d="M0 547v137h1024v-137h-1024z" />
<glyph unicode="&#x2014;" horiz-adv-x="2048" d="M0 547v137h2048v-137h-2048z" />
<glyph unicode="&#x2018;" horiz-adv-x="718" d="M227 1516h152l180 -396h-151z" />
<glyph unicode="&#x2019;" horiz-adv-x="718" d="M162 1120l180 396h152l-181 -396h-151z" />
<glyph unicode="&#x201a;" horiz-adv-x="724" d="M164 -137l180 395h152l-181 -395h-151z" />
<glyph unicode="&#x201c;" horiz-adv-x="1028" d="M197 1516h151l180 -396h-151zM500 1516h151l180 -396h-151z" />
<glyph unicode="&#x201d;" horiz-adv-x="991" d="M178 1120l180 396h152l-180 -396h-152zM481 1120l181 396h151l-180 -396h-152z" />
<glyph unicode="&#x201e;" horiz-adv-x="1028" d="M197 -137l180 395h151l-180 -395h-151zM500 -137l180 395h151l-180 -395h-151z" />
<glyph unicode="&#x2020;" horiz-adv-x="1132" d="M121 967v137h371v412h151v-412h371v-137h-371v-1227h-151v1227h-371z" />
<glyph unicode="&#x2021;" horiz-adv-x="1132" d="M121 682v137h371v195h-371v137h371v365h151v-365h371v-137h-371v-195h371v-137h-371v-944h-151v944h-371z" />
<glyph unicode="&#x2022;" horiz-adv-x="1241" d="M293 614q0 136 95.5 232t232.5 96q136 0 231.5 -95.5t95.5 -232.5q0 -136 -95 -231.5t-232 -95.5t-232.5 95.5t-95.5 231.5z" />
<glyph unicode="&#x2026;" horiz-adv-x="2048" d="M266 0v258h152v-258h-152zM948 0v258h152v-258h-152zM1630 0v258h152v-258h-152z" />
<glyph unicode="&#x202f;" horiz-adv-x="390" />
<glyph unicode="&#x2030;" horiz-adv-x="2404" d="M37 1184q0 150 105 254t253 104q151 0 255 -103.5t104 -254.5q0 -148 -104.5 -253.5t-254.5 -105.5q-149 0 -253.5 105t-104.5 254zM180 1184q0 -89 63 -152t152 -63q90 0 152.5 63.5t62.5 151.5q0 89 -63 152t-152 63q-88 0 -151.5 -62.5t-63.5 -152.5zM379 0l680 1516 h147l-680 -1516h-147zM834 332q0 150 105 254t253 104q151 0 254.5 -103.5t103.5 -254.5q0 -149 -104 -254t-254 -105q-149 0 -253.5 105t-104.5 254zM977 332q0 -89 63 -152t152 -63q90 0 152.5 63.5t62.5 151.5q0 89 -63 152t-152 63q-88 0 -151.5 -62.5t-63.5 -152.5z M1651 332q0 150 105 254t253 104q151 0 254.5 -103.5t103.5 -254.5q0 -149 -104 -254t-254 -105q-149 0 -253.5 105t-104.5 254zM1794 332q0 -89 63 -152t152 -63q90 0 152.5 63.5t62.5 151.5q0 89 -63 152t-152 63q-88 0 -151.5 -62.5t-63.5 -152.5z" />
<glyph unicode="&#x205f;" horiz-adv-x="487" />
<glyph unicode="&#x20ac;" d="M55 551l41 127h94q-4 40 -4 86q0 36 4 82h-135l41 125h105q13 100 38.5 184.5t68 157t99.5 122.5t135 78.5t173 28.5q109 0 196 -30.5t133 -73.5v-164q-112 121 -313 121q-170 0 -265.5 -117t-115.5 -307h604l-41 -125h-579q-2 -23 -2 -82q0 -18 1 -47t1 -39h524 l-41 -127h-467q25 -207 123 -318.5t260 -111.5q190 0 311 121v-166q-42 -41 -129 -71t-200 -30q-216 0 -346.5 143.5t-165.5 432.5h-148z" />
<glyph unicode="&#x2122;" horiz-adv-x="2048" d="M129 1393v123h698v-123h-272v-738h-152v738h-274zM979 655v861h217l254 -611l254 611h217v-861h-135v736l-295 -736h-82l-295 736v-736h-135z" />
<glyph unicode="&#x25fc;" horiz-adv-x="1116" d="M0 0v1116h1116v-1116h-1116z" />
</font>
</defs>
</svg>
